<?xml version="1.0" encoding="UTF-8"?>
<svg width="35pt" height="35pt" version="1.1" viewBox="0 0 100 100" xmlns="http://www.w3.org/2000/svg">
 <g fill="#676767">
  <path d="m71.875 50c9.4766 0 17.188-7.7109 17.188-17.188s-7.7109-17.188-17.188-17.188-17.188 7.7109-17.188 17.188 7.7109 17.188 17.188 17.188z"/>
  <path d="m28.125 50c9.4766 0 17.188-7.7109 17.188-17.188s-7.7109-17.188-17.188-17.188-17.188 7.7109-17.188 17.188 7.7109 17.188 17.188 17.188z"/>
  <path d="m38.793 50.066c-3.1055 1.9258-6.7539 3.0586-10.668 3.0586s-7.5625-1.1328-10.668-3.0586c-9.7344 0.66797-17.457 8.7812-17.457 18.684v9.375c0 3.4375 2.8125 6.25 6.25 6.25h43.75c3.4375 0 6.25-2.8125 6.25-6.25v-9.375c0-9.9023-7.7227-18.016-17.457-18.684z"/>
  <path d="m82.543 50.066c-3.1055 1.9258-6.7539 3.0586-10.668 3.0586s-7.5625-1.1328-10.668-3.0586c-3.1797 0.21875-6.1367 1.2422-8.6914 2.8516 4.2227 4.0039 6.8594 9.6367 6.8594 15.832v9.375c0 2.4023-0.91406 4.5898-2.4062 6.25h36.781c3.4375 0 6.25-2.8125 6.25-6.25v-9.375c0-9.9023-7.7227-18.016-17.457-18.684z"/>
 </g>
</svg>
