<?xml version="1.0" encoding="UTF-8"?>
<svg width="30pt" height="30pt" version="1.1" viewBox="0 0 100 100" xmlns="http://www.w3.org/2000/svg">
 <path d="m5 21.875c0-4.6602 3.7773-8.4375 8.4375-8.4375h73.125c4.6602 0 8.4375 3.7773 8.4375 8.4375s-3.7773 8.4375-8.4375 8.4375h-73.125c-4.6602 0-8.4375-3.7773-8.4375-8.4375zm81.562 19.688h-73.125c-4.6602 0-8.4375 3.7773-8.4375 8.4375s3.7773 8.4375 8.4375 8.4375h73.125c4.6602 0 8.4375-3.7773 8.4375-8.4375s-3.7773-8.4375-8.4375-8.4375zm0 28.125h-73.125c-4.6602 0-8.4375 3.7773-8.4375 8.4375s3.7773 8.4375 8.4375 8.4375h73.125c4.6602 0 8.4375-3.7773 8.4375-8.4375s-3.7773-8.4375-8.4375-8.4375z" fill="#676767"/>
</svg>
