<?xml version="1.0" encoding="UTF-8"?>
<svg width="20pt" height="20pt" version="1.1" viewBox="0 0 100 100" xmlns="http://www.w3.org/2000/svg">
 <g>
  <path d="m85.703 68.734c-0.39062 0.30859-0.62109 0.46875-0.83203 0.65234-1.9805 1.707-3.9375 3.4375-5.9375 5.1133-0.48438 0.375-0.75391 0.96875-0.72266 1.5859-0.042969 4.0508-0.11328 8.0977-0.21094 12.148-0.0625 2.6719-1.4375 4.0391-4.1328 4.1641-0.45703 0.023437-0.91406 0.039062-1.3672 0.039062-12.672 0.019531-25.348 0.03125-38.023 0.039062-4.8008 0-9.6016-0.085937-14.402-0.16406-1.8242-0.03125-3.125-1.1016-3.5273-2.8164l0.003906-0.003906c-0.097656-0.51172-0.14062-1.0352-0.125-1.5625-0.054687-9.0156-0.14844-18.031-0.14453-27.047 0.011719-16.199 0.0625-32.402 0.14453-48.602-0.019531-0.58203 0.035157-1.1641 0.16406-1.7344 0.50781-1.8867 1.7578-2.7344 4.1797-2.75 6.9922-0.066406 13.977-0.14062 20.969-0.14062 10.746 0 21.492 0.035156 32.238 0.10156 2.5625 0.015626 3.9531 1.4609 4.0195 4.0508 0.10938 4.1133 0.15625 8.2266 0.25 12.344 0 0.36719 0.0625 0.85938 0.29688 1.0664 2.2891 2.0352 4.625 4.0234 7.0859 6.1484 0.03125-0.32031 0.058594-0.44531 0.058594-0.57031 0-6.5312-0.007812-13.066-0.019531-19.598 0-3.2305-1.2734-5.9141-3.625-8.0586-2.1602-1.9688-4.6094-3.2109-7.668-3.1406-4.1133 0.09375-8.2305 0.015625-12.348 0.019531-13.684 0.015625-27.371 0.050781-41.059 0.035156-3-0.0039063-5.7734 0.57812-8.0781 2.6289-2.5898 2.3047-4.2188 5.0352-4.207 8.668 0.03125 12.938-0.046875 25.871-0.023438 38.805 0.019532 12.934 0.125 25.867 0.14844 38.805 0 3.2148 1.1953 5.8477 3.5156 7.9844 2.1328 1.9531 4.5547 3.0664 7.582 3.0547 18.586-0.0625 37.172-0.03125 55.758-0.046875 0.61719 0.003906 1.2266-0.09375 1.8125-0.28906 5.2891-1.8516 8.1328-5.7656 8.2031-11.375 0.054687-5.0312 0.023437-10.062 0.03125-15.09-0.003907-1.4258-0.007813-2.8477-0.007813-4.4648z"/>
  <path d="m85.133 44.531c-7.3867-6.3789-14.773-12.762-22.164-19.141-0.53906-0.49609-1.3008-0.66406-2-0.4375-1.1719 0.3125-1.8828 1.1094-1.9688 2.293-0.13281 1.8203-0.16406 3.6328-0.19531 5.4609-0.03125 1.8867 0 3.8203 0 5.7734h-1.125c-7.2852 0-14.566 0.003906-21.852 0.011719h0.003906c-1.0664-0.015626-2.0977 0.40234-2.8516 1.1602-0.75391 0.75781-1.1641 1.7891-1.1445 2.8555v15.293c0 2.0117 1.7734 3.7578 3.7812 3.7578 7.2266 0 14.438-0.039063 21.656-0.039063h1.4688v1.4102c0.035156 2.7344 0.0625 5.5078 0.11719 8.25l-0.003906 0.003906c0 0.58984 0.058593 1.1797 0.17578 1.7578 0.46484 2.0625 2.8125 2.8516 4.3984 1.4766 8.8984-7.7305 17.797-15.465 26.688-23.199 0.40625-0.35547 0.78125-0.74219 1.2266-1.1562-0.3125-0.29688-0.53906-0.52344-0.78125-0.73438-1.8047-1.6016-3.6055-3.2148-5.4297-4.7969z"/>
 </g>
</svg>
