<?xml version="1.0" encoding="UTF-8"?>
<svg width="25pt" height="25pt" version="1.1" viewBox="0 0 100 100" xmlns="http://www.w3.org/2000/svg">
 <g>
  <path d="m78.5 74c2.8008 0 5-2.6016 4.3984-5.3984-0.39844-2.1016-2.3984-3.6016-4.6016-3.6016-0.39844 0-0.80078-0.30078-0.80078-0.80078l-1.4961-15.199c0-8-2.8008-15.199-7.6992-20.301-2.8984-3-6.5-5.3008-10.602-6.5-0.89844-0.30078-1.3008-1.1992-1-2 0.39844-1.1016 0.39844-1.3984 0.10156-2.6992-0.60156-2.6992-2.8008-4.8008-5.5-5.3008-4.4023-0.89844-8.3008 2.5-8.3008 6.8008 0 0.69922 0.10156 0.5 0.30078 1.1016 0.30078 0.80078-0.19922 1.6992-1 2-11.102 3.3984-18.301 14.199-18.301 26.898l-1.3984 15.199c0 0.39844-0.39844 0.80078-0.80078 0.80078-2.1992 0-4.1992 1.3984-4.6016 3.6016-0.60156 2.8984 1.6016 5.3984 4.3984 5.3984z"/>
  <path d="m40.801 78c0.10156 0.10156 0.10156 0.30078 0.19922 0.39844 0.19922 4.8008 4.1992 8.6016 9 8.6016s8.8008-3.8008 9-8.6016c0.10156-0.10156 0.10156-0.19922 0.19922-0.39844z"/>
 </g>
</svg>
