<?xml version="1.0" encoding="UTF-8"?>
<svg width="30pt" height="30pt" version="1.1" viewBox="0 0 100 100" xmlns="http://www.w3.org/2000/svg">
 <path d="m82.598 13.555h-65.195c-8.2188 0-14.902 6.6836-14.902 14.902v30.688c0 7.3242 5.207 13.391 12.199 14.648v7.3945c0 2.1328 1.2734 4.0391 3.2461 4.8555 0.65234 0.26953 1.3359 0.40234 2.0156 0.40234 1.3672 0 2.7031-0.53516 3.7109-1.543l10.859-10.867h48.078c8.2109 0 14.891-6.6797 14.891-14.891v-30.688c0-8.2188-6.6836-14.902-14.902-14.902zm10.426 45.59c0 5.7422-4.6719 10.414-10.414 10.414h-49.004c-0.59375 0-1.1641 0.23438-1.582 0.65625l-11.516 11.523c-0.32031 0.32031-0.67187 0.24219-0.85156 0.16797s-0.48047-0.26562-0.48047-0.71875v-9.4023c0-1.207-0.95703-2.1953-2.1602-2.2383-5.6289-0.19531-10.039-4.7656-10.039-10.406v-30.684c0-5.75 4.6758-10.426 10.426-10.426h65.199c5.75 0 10.426 4.6758 10.426 10.426z" fill="#9b9b9b"/>
</svg>
