<?xml version="1.0" encoding="UTF-8"?>
<svg width="17pt" height="17pt" version="1.1" viewBox="0 0 100 100" xmlns="http://www.w3.org/2000/svg">
 <g fill="#fff" fill-rule="evenodd">
  <path d="m79.688 38.254h-13.523c1.1211-4.5 4.1445-6.2109 4.1445-12.496 0-11.469-13.062-21.246-16.359-3.6133-0.98047 4.7461-11.785 21.934-16.594 22.309-1.6172 0.15234-2.9766 1.5117-2.9766 3.1289v31.297c0 1.7109 1.4648 3.0703 3.1172 3.1172 1.7109 0.058594 4.6406 1.0742 7.7109 2.1484 5.2812 1.8086 11.871 4.1094 18.852 4.1094 9.0586 0 19.32 0.14062 18.305-12.648 2.6445-2.5273 3.6719-6.8164 2.6445-10.297 2.3633-3.1641 2.6094-6.7773 1.3711-10.406 0 0 2.1367-16.652-6.6953-16.652z"/>
  <path d="m31.25 47.633v31.25c0 1.6992-1.418 3.1172-3.1289 3.1172h-14.055c-1.7109 0-3.1289-1.4062-3.1289-3.1172v-31.25c0-1.7109 1.418-3.1289 3.1289-3.1289h14.055c1.7109 0 3.1289 1.418 3.1289 3.1289z"/>
 </g>
</svg>
