<?xml version="1.0" encoding="UTF-8"?>
<svg width="20pt" height="20pt" version="1.1" viewBox="0 0 100 100" xmlns="http://www.w3.org/2000/svg">
 <path fill="#ff0000" d="m50.008 0c27.613 0 49.992 22.395 49.992 50.008 0 27.613-22.383 49.992-49.992 49.992-27.613 0-50.008-22.383-50.008-49.992 0-27.613 22.395-50.008 50.008-50.008zm-0.73047 39.207-19.395-19.395c-6.625-6.625-16.73 3.4805-10.105 10.105l20.102 20.102-20.102 20.09c-6.625 6.6367 3.4805 16.73 10.105 10.105l20.102-20.102 20.09 20.102c6.6367 6.625 16.73-3.4688 10.105-10.105l-20.102-20.09 20.102-20.102c6.7461-6.7461-3.4453-16.754-10.105-10.105l-20.09 20.102z" fill-rule="evenodd"/>
</svg>
