<?xml version="1.0" encoding="UTF-8"?>
<svg width="25pt" height="25pt" version="1.1" viewBox="0 0 100 100" xmlns="http://www.w3.org/2000/svg">
 <path fill="#40B25C" d="m50 2.5c-26.199 0-47.5 21.301-47.5 47.5s21.301 47.5 47.5 47.5 47.5-21.301 47.5-47.5-21.301-47.5-47.5-47.5zm21.102 39.801-21.902 23.598c-1.1016 1.1992-2.6992 1.8984-4.3984 1.8984s-3.1992-0.69922-4.3984-1.8984l-11.504-12.5c-2.1992-2.3984-2.1016-6.1992 0.30078-8.5 2.3984-2.1992 6.1992-2.1016 8.5 0.30078l7.1992 7.6992 17.5-18.898c2.3008-2.3984 6-2.5 8.5-0.30078 2.3008 2.4023 2.5 6.1992 0.20312 8.6016z"/>
</svg>
