<?xml version="1.0" encoding="UTF-8"?>
<svg width="30pt" height="30pt" version="1.1" viewBox="0 0 100 100" xmlns="http://www.w3.org/2000/svg">
 <g fill="#166FE5">
  <path d="m28.52 48.059c0.67188-0.070313 8.8711-1.1016 13.109-9.5898 3.4102-6.8398 4.8906-27.961 11.488-28.281 11.262-0.55859 11.18 23.07 7.5 29.852 3.0781 0.16016 23.09 0.87109 24.32 1.3906 0.17969-0.37891 5.1992 3.0703 5.0586 7.6094-0.078125 2.8398-2.1992 5.1211-4.1094 6.6211 0.96094 0.92969 1.8711 2.3008 2.4219 4.2891 1.1094 3.9805-2.1211 6.5391-4.7109 7.9102 0.62891 0.92969 1.2188 2.0781 1.5 3.4219 0.57812 2.7891-2.2617 5.1484-4.5 6.5508 0.60938 0.96875 1.1914 2.2617 1.4883 3.9492 0.94141 5.2617-4.5 7.8281-4.5195 7.8398-0.35156 0.17188-0.71875 0.23047-1.0781 0.19922l-40.98-1.4609c-0.37891-0.011719-0.73828-0.12891-1.0391-0.32031l-6.7305-4.2617c-0.66016-0.42188-1-1.1406-0.96875-1.8594l-0.17188-31.77c-0.011718-1.1016 0.83984-2 1.9219-2.0898zm16.852-7.7305c-4.0703 8.1484-11.199 10.75-14.59 11.551l0.16016 28.98 5.2891 3.3516 39.941 1.4219c0.69922-0.44141 2.0898-1.5312 1.8086-3.1289-0.44141-2.4219-1.4492-3.2617-1.6797-3.4297-0.41016-0.21875-0.75-0.57812-0.94141-1.0391-0.44922-1.0703 0.058594-2.2891 1.1289-2.7305 0.011719-0.011719 4.7617-2.0117 4.5195-3.1602-0.42969-2.0586-2.1484-3.3789-2.1484-3.3906 0 0-0.71875-0.96875-0.75-1.0781-0.32812-1.1016 0.30078-2.2617 1.4102-2.5898 0.011719 0 5.4297-1.6094 4.7695-4.0117-0.85156-3.0391-2.6289-3.2617-2.6289-3.2617s-1.5195-0.92969-1.6289-1.1602c-0.5-1.0391-0.070312-2.2812 0.96875-2.7812 0.011719-0.011719 4.7305-2.2812 4.8203-4.9609 0.058594-2.0195-1.5781-3.1289-2.2383-3.5l-26.559-1.3789c0-0.019531-2.9297-0.85156-1.7305-3.0781 0.011719 0 0.82031-1.3203 1.8398-3.2188 1.7305-3.2188 3.0586-23.16-3.5312-23.371-1.7891-0.050781-6.3594 22.219-8.2305 25.969z"/>
  <path d="m12.09 48.551h10.09c1.1484 0 2.0898 0.92969 2.0898 2.0898v30.398c0 1.1602-0.94141 2.1016-2.0898 2.1016h-10.09c-1.1602 0-2.1016-0.94141-2.1016-2.1016v-30.398c0-1.1602 0.94141-2.0898 2.1016-2.0898zm7.9883 4.1914h-5.8984v26.211h5.8984z"/>
 </g>
</svg>
