<?xml version="1.0" encoding="UTF-8"?>
<svg width="100pt" height="100pt" version="1.1" viewBox="0 0 100 100" xmlns="http://www.w3.org/2000/svg">
 <g>
  <path d="m63.805 27.133c0 9.3477-7.582 16.926-16.93 16.926s-16.93-7.5781-16.93-16.926c0-9.3516 7.582-16.93 16.93-16.93s16.93 7.5781 16.93 16.93"/>
  <path d="m74.656 48.438c-3.2969 0-6.5195 0.96875-9.2695 2.7852-7.0352-4.4609-15.441-6.2383-23.68-5.0117-8.2383 1.2227-15.762 5.3711-21.195 11.688-5.4336 6.3125-8.418 14.367-8.4023 22.699v2.4766-0.003907c0 2.7344 2.2148 4.9492 4.9453 4.9492h59.641c2.7305 0 4.9453-2.2148 4.9453-4.9492v-2.3555c4.7227-2.1406 8.1992-6.3359 9.4297-11.375 1.2305-5.0391 0.082032-10.363-3.125-14.441-3.2031-4.082-8.1016-6.4609-13.289-6.4609zm0 30.684c-5.5742 0-10.598-3.3555-12.73-8.5039-2.1328-5.1484-0.95312-11.074 2.9883-15.016 3.9375-3.9414 9.8633-5.1211 15.012-2.9883 5.1484 2.1328 8.5078 7.1562 8.5078 12.727-0.007813 7.6094-6.1719 13.773-13.777 13.781z"/>
  <path d="m81.25 60.09-7.1875 7.1875-4.0938-4.0781c-0.61328-0.58984-1.5859-0.58203-2.1914 0.019531-0.60156 0.60156-0.60938 1.5781-0.019532 2.1914l5.1836 5.1836h0.003906c0.60938 0.60938 1.5977 0.60938 2.207 0l8.2852-8.293c0.34375-0.27734 0.55469-0.6875 0.57812-1.1289s-0.14062-0.87109-0.44922-1.1875c-0.3125-0.3125-0.74219-0.48047-1.1836-0.46094-0.44141 0.019531-0.85156 0.22656-1.1328 0.56641z"/>
 </g>
</svg>
