<?xml version="1.0" encoding="UTF-8"?>
<svg width="30pt" height="30pt" version="1.1" viewBox="0 0 100 100" xmlns="http://www.w3.org/2000/svg">
 <g>
  <path d="m57.812 50c10 0 18.125-8.125 18.125-18.438s-8.125-18.438-18.125-18.438-18.125 8.125-18.125 18.438 8.125 18.438 18.125 18.438z"/>
  <path d="m71.562 54.062h-26.875c-10.625 0-19.062 8.75-19.062 19.375v5c0 4.6875 3.75 8.4375 8.125 8.4375h48.75c4.6875 0 8.125-3.75 8.125-8.4375v-5c0-10.625-8.75-19.375-19.062-19.375z"/>
  <path d="m25.625 54.062v-8.125h8.125v-8.125h-8.125v-8.4375h-8.125v8.4375h-8.125v8.125h8.125v8.125z"/>
 </g>
</svg>
