<?xml version="1.0" encoding="UTF-8"?>
<svg width="100pt" height="100pt" version="1.1" viewBox="0 0 100 100" xmlns="http://www.w3.org/2000/svg">
 <g>
  <path d="m53.125 57.969c-1.375-14.234-11.75-17.422-24.141-17.422s-22.75 3.1875-24.141 17.422v6.4062h48.281z"/>
  <path d="m28.984 40.281c7.8594 0 14.25-6.3906 14.25-14.25s-6.3906-14.25-14.25-14.25-14.25 6.3906-14.25 14.25 6.3906 14.25 14.25 14.25z"/>
  <path d="m71.016 64.391c-12.391 0-22.766 3.1875-24.141 17.422v6.4062h48.281v-6.4062c-1.3906-14.234-11.766-17.422-24.141-17.422z"/>
  <path d="m71.016 64.125c7.8594 0 14.25-6.3906 14.25-14.25s-6.3906-14.25-14.25-14.25-14.25 6.3906-14.25 14.25 6.3906 14.25 14.25 14.25z"/>
 </g>
</svg>
