<?xml version="1.0" encoding="UTF-8"?>
<svg width="20pt" height="20pt" version="1.1" viewBox="0 0 100 100" xmlns="http://www.w3.org/2000/svg">
 <g>
  <path d="m50 69.625c-7.375 0-13.375-6-13.375-13.375s6-13.375 13.375-13.375 13.375 6 13.375 13.375-6 13.375-13.375 13.375zm0-22.582c-5.0781 0-9.207 4.1289-9.207 9.207s4.1289 9.207 9.207 9.207 9.207-4.1289 9.207-9.207-4.1289-9.207-9.207-9.207z"/>
  <path d="m77.082 29.168h-4.3047l-3.4141-6.7266c-1.7812-3.5625-5.3555-5.7734-9.3203-5.7734h-20.086c-3.9648 0-7.5391 2.2109-9.3164 5.7617l-3.418 6.7383h-4.3047c-5.7461 0-10.418 4.6719-10.418 10.414v33.332c0 5.7461 4.6719 10.418 10.418 10.418h54.168c5.7461 0 10.418-4.6758 10.418-10.418v-33.332c-0.003906-5.7422-4.6758-10.414-10.422-10.414zm-27.082 44.625c-9.6719 0-17.543-7.8711-17.543-17.543s7.8711-17.543 17.543-17.543 17.543 7.8711 17.543 17.543-7.8711 17.543-17.543 17.543z"/>
  <path d="m63.375 56.25c0 7.3867-5.9883 13.375-13.375 13.375s-13.375-5.9883-13.375-13.375 5.9883-13.375 13.375-13.375 13.375 5.9883 13.375 13.375"/>
 </g>
</svg>
