<?xml version="1.0" encoding="UTF-8"?>
<svg width="100pt" height="100pt" version="1.1" viewBox="0 0 100 100" xmlns="http://www.w3.org/2000/svg">
 <g fill="#fff">
  <path d="m51.977 47.531h-3.9531c-17.465 0-31.621 14.156-31.621 31.621 0 2.5547 1.4062 4.9297 3.6953 6.0703 9.0078 4.4883 19.156 7.0234 29.906 7.0234 10.746 0 20.898-2.5352 29.906-7.0234 2.2852-1.1406 3.6953-3.5156 3.6953-6.0703 0-17.465-14.156-31.621-31.621-31.621z"/>
  <path d="m66.801 24.551c0 9.2773-7.5234 16.801-16.801 16.801s-16.801-7.5234-16.801-16.801c0-9.2773 7.5234-16.801 16.801-16.801s16.801 7.5234 16.801 16.801"/>
 </g>
</svg>
