<?xml version="1.0" encoding="UTF-8"?>
<svg width="30pt" height="30pt" version="1.1" viewBox="0 0 100 100" xmlns="http://www.w3.org/2000/svg">
 <path d="m67.812 32.188c-1.4766-1.4766-3.8672-1.4766-5.3438 0l-12.469 12.469-12.469-12.469c-1.4766-1.4766-3.8672-1.4766-5.3438 0s-1.4766 3.8672 0 5.3438l12.469 12.469-12.469 12.469c-1.4766 1.4766-1.4766 3.8672 0 5.3438s3.8672 1.4766 5.3438 0l12.469-12.469 12.469 12.469c1.4766 1.4766 3.8672 1.4766 5.3438 0s1.4766-3.8672 0-5.3438l-12.469-12.469 12.469-12.469c1.4766-1.4766 1.4766-3.8672 0-5.3438z" fill="#676767"/>
</svg>
