<?xml version="1.0" encoding="UTF-8"?>
<svg width="30pt" height="30pt" version="1.1" viewBox="0 0 100 100" xmlns="http://www.w3.org/2000/svg">
 <g fill="#40b25c">
  <path d="m69.746 28.141c-1.4766-4.1875-5.957-6.6172-10.352-5.4688-2.8867 0.75391-5.0508 2.875-5.9688 5.4805z"/>
  <path d="m93.668 30.816h-0.003907l-72.855 0.042969c-3.4883 0-6.3398 2.8359-6.3438 6.2969l-0.027344 48.738c0 3.4609 2.8477 6.293 6.332 6.293h0.003907l72.855-0.042969c3.4844-0.003906 6.3398-2.8359 6.3438-6.3008l0.027344-48.734c0.003906-3.4609-2.8477-6.293-6.332-6.293zm3.1523 22.992c-22.211 2.707-33.422 15.238-38.852 24.906-11.074-19.07-35.355-18.227-40.344-17.836l0.015625-23.723c0-1.7383 1.4258-3.1523 3.1758-3.1523l72.855-0.042968h0.003906c0.83984 0 1.6289 0.32812 2.2305 0.92578 0.60156 0.59766 0.92969 1.3828 0.92969 2.2188z"/>
  <path d="m77.297 10.961c1.4492 0 2.7188 0.96484 3.0859 2.3516l3.8242 14.363 3.2773-0.003906-4.0391-15.168c-0.75-2.8164-3.3398-4.6914-6.1523-4.6914-0.53125 0-1.0664 0.066406-1.6016 0.20703l-70.973 18.508c-3.3711 0.87891-5.4023 4.3359-4.5078 7.6836l11.066 41.555 0.007812-12.285-1.4883-5.5781c0.36328-0.12891 0.86328-0.29688 1.4883-0.48828v-1.6445c-0.79688 0.23828-1.4336 0.44922-1.8984 0.60938l-6.1133-22.973c-0.21484-0.80469-0.097657-1.6484 0.33203-2.375 0.42969-0.73047 1.1094-1.2461 1.9219-1.457l70.977-18.508c0.25781-0.070312 0.52344-0.10547 0.79297-0.10547z"/>
  <path d="m82.812 49.219c0 4.7461-3.8477 8.5938-8.5938 8.5938s-8.5938-3.8477-8.5938-8.5938 3.8477-8.5938 8.5938-8.5938 8.5938 3.8477 8.5938 8.5938"/>
 </g>
</svg>
